<svg xmlns="http://www.w3.org/2000/svg" xml:space="preserve" viewBox="0 0 318.74 318.74">
  <g fill="#F6FEF1">
    <path d="M0 222.469h14.609V57.725h257.79V41.201H0z"/>
    <path d="M41.098 227.908V82.793h256.794v-14.19H25.487v181.273h15.611z"/>
    <path d="M303.331 95.336H53.134v182.205H318.74V95.336h-15.409zM69.451 260.754v-36.197h100.171V208.24H69.451v-96.587h232.972v96.592h-34.897v16.318h34.897v36.67H69.451v-.479z"/>
    <path d="M122.863 131.685c2.263 0 4.46.272 6.581.751.245-1.033.402-2.127.402-3.285 0 0-3.089-10.122-6.897-10.122h-.179c-3.807 0-6.897 10.122-6.897 10.122 0 1.159.158 2.252.402 3.285a29.925 29.925 0 0 1 6.588-.751zm32.52 22.997a14.22 14.22 0 0 0-3.285.402 29.82 29.82 0 0 1 .751 6.581c0 2.263-.272 4.46-.751 6.581 1.033.245 2.127.402 3.285.402 0 0 10.122-3.089 10.122-6.897v-.179c0-3.807-10.122-6.89-10.122-6.89zm-32.52 36.969c-2.263 0-4.46-.272-6.581-.751a14.173 14.173 0 0 0-.402 3.285s3.089 10.122 6.897 10.122h.179c3.807 0 6.897-10.122 6.897-10.122a14.22 14.22 0 0 0-.402-3.285c-2.123.473-4.32.751-6.588.751zm-24.552-12.836c-.881.604-1.741 1.305-2.518 2.159 0 0-4.542 9.556-1.73 12.124l.131.12c2.812 2.567 11.917-2.828 11.917-2.828a14.094 14.094 0 0 0 1.92-2.709 30.098 30.098 0 0 1-9.72-8.866zm0-34.299a30.135 30.135 0 0 1 9.725-8.871 14.314 14.314 0 0 0-1.92-2.709s-9.105-5.396-11.917-2.828l-.131.12c-2.812 2.567 1.73 12.124 1.73 12.124.773.859 1.632 1.56 2.513 2.164zm49.109 0a14.322 14.322 0 0 0 2.518-2.159s4.542-9.556 1.73-12.124l-.131-.12c-2.812-2.567-11.917 2.828-11.917 2.828a14.094 14.094 0 0 0-1.92 2.709 30.098 30.098 0 0 1 9.72 8.866zm0 34.299a30.135 30.135 0 0 1-9.725 8.871c.517.93 1.137 1.849 1.92 2.709 0 0 9.105 5.396 11.917 2.828l.131-.12c2.812-2.567-1.73-12.124-1.73-12.124-.772-.859-1.631-1.561-2.513-2.164zm-54.537-17.15c0-2.263.272-4.46.751-6.581a14.173 14.173 0 0 0-3.285-.402s-10.122 3.089-10.122 6.897v.179c0 3.807 10.122 6.897 10.122 6.897a14.22 14.22 0 0 0 3.285-.402 29.883 29.883 0 0 1-.751-6.588zm49.147 15.164c2.535-3.198 4.291-6.995 4.977-11.199.212-1.3.397-2.605.397-3.965s-.185-2.665-.397-3.965c-.685-4.204-2.448-8.001-4.977-11.199-1.653-2.089-3.579-3.938-5.82-5.396-2.785-1.811-5.967-3.03-9.382-3.59-1.3-.212-2.605-.397-3.965-.397s-2.665.185-3.965.397c-3.416.56-6.598 1.773-9.382 3.59-2.241 1.458-4.166 3.307-5.82 5.396-2.535 3.198-4.291 6.995-4.977 11.199-.212 1.3-.397 2.605-.397 3.965s.185 2.665.397 3.965c.685 4.204 2.448 8.001 4.977 11.199 1.653 2.089 3.579 3.938 5.82 5.396 2.785 1.811 5.967 3.03 9.382 3.59 1.3.212 2.605.397 3.965.397s2.665-.185 3.965-.397c3.416-.56 6.598-1.773 9.382-3.59 2.241-1.458 4.167-3.312 5.82-5.396zm101.02-26.303c.876-.038 1.719-.169 2.605-.169.473 0 .93.065 1.398.087.952.038 1.915.065 2.845.174.974.114 1.915.31 2.861.5-.212-4.074-3.557-7.326-7.68-7.326-4.052 0-7.348 3.149-7.658 7.125.919-.125 1.887-.125 2.823-.212.93-.076 1.865-.141 2.806-.179zm-7.74 71.943c-1.757-11.857-11.912-21.017-24.247-21.017-12.336 0-22.491 9.159-24.247 21.017-.131.897-.239 1.8-.277 2.72-.011.299-.087.577-.087.876 0 .631.141 1.224.185 1.838a24.532 24.532 0 0 0 18.487 21.963c1.915.479 3.883.805 5.939.805s4.025-.332 5.939-.805a24.532 24.532 0 0 0 18.487-21.963c.049-.62.185-1.213.185-1.838 0-.299-.076-.577-.087-.876a26.014 26.014 0 0 0-.277-2.72zm-4.231 5.439c-.109 2.322-.484 3.905-.484 3.905-.517.702-1.169 1.284-1.904 1.773-5.542 3.726-16.241 2.034-16.241 2.034 1.632-3.084-1.392-5.689-1.392-5.689 1.267-.517 2.513-1.235 3.737-2.023a35.546 35.546 0 0 0 3.628-2.72 49.94 49.94 0 0 0 2.986-2.72 68.29 68.29 0 0 0 5.836-6.576l.446-.587c1.675 2.312 2.529 4.814 2.981 7.169.179.946.305 1.849.364 2.72.059.979.081 1.892.043 2.714zm-39.901-5.439c.386-2.034 2.366-10.34 9.295-13.092 0 0-.005.288 0 .723.011 1.887.179 7.337 1.605 12.368.267.941.593 1.844.952 2.72.402.979.87 1.882 1.409 2.72.12.185.201.402.326.577 0 0-4.112.12-4.357 4.357 0 0-3.095-1.316-6.135-4.933a22.308 22.308 0 0 1-1.942-2.72c-.109-.174-.201-.381-.31-.566-.315-.549-.642-1.082-.93-1.702.011.004.032-.159.087-.452zm21.212 24.165s-6.288.549-12.336-3.144l.696-1.305 2.328-4.373s2.779 2.415 5.564 1.082l3.046 6.288.702 1.452zm-2.393-10.802c-.919 1.724-3.258 2.268-5.227 1.218s-2.817-3.296-1.904-5.02c.914-1.724 3.258-2.268 5.227-1.218 1.969 1.05 2.823 3.302 1.904 5.02zm36.458-46.912c-.723-.011-1.42-.076-2.148-.076-.201 0-.392.016-.593.016-.925.005-1.811.044-2.72.065-.908.016-1.828.033-2.72.065v57.03c0 1.463.566 2.747 1.354 3.862 1.235 1.74 3.166 2.953 5.455 2.953 2.29 0 4.221-1.213 5.455-2.953.789-1.115 1.354-2.399 1.354-3.862v-56.915c-.903-.044-1.811-.065-2.72-.092-.906-.027-1.803-.082-2.717-.093z"/>
    <path d="M196.655 189.834c.267 0 .582-.049.946-.147 6.516-1.833 22.164-5.57 41.631-6.162 1.207-.038 2.41-.076 3.644-.087.484-.005.946-.033 1.436-.033 1.001 0 2.061.076 3.084.098 1.191.022 2.399.065 3.612.114 6.891.283 14.071 1.05 21.403 2.442.908.174 1.806.283 2.72.479.903.19 1.811.435 2.72.647 3.035.707 6.075 1.458 9.121 2.415.381.12.713.174.995.174 1.05 0 1.343-.805.571-2.094-1.985-3.302-5.668-8.887-10.688-14.473a77.734 77.734 0 0 0-2.72-2.872 68.516 68.516 0 0 0-2.72-2.594c-5.624-5.091-12.379-9.453-20.005-11.156-.887-.196-1.773-.402-2.681-.528-.995-.136-2.012-.174-3.035-.207-.343-.011-.674-.065-1.023-.065-.734 0-1.425.06-2.143.087a55.88 55.88 0 0 0-3.062.179c-.93.087-1.838.212-2.741.348-20.222 3.051-33.042 17.492-41.636 31.324-.816 1.306-.528 2.111.571 2.111z"/>
  </g>
</svg>